<?xml version="1.0" encoding="utf-8"?>
<!-- Generator: Adobe Illustrator 18.1.1, SVG Export Plug-In . SVG Version: 6.00 Build 0)  -->
<svg version="1.1" id="Layer_1" xmlns="http://www.w3.org/2000/svg" xmlns:xlink="http://www.w3.org/1999/xlink" x="0px" y="0px"
	 viewBox="0 0 401.1 401.1" enable-background="new 0 0 401.1 401.1" xml:space="preserve">
<path display="none" fill-rule="evenodd" clip-rule="evenodd" fill="#F4F4F4" d="M75.9,196l56.7-56.7c1.2-4.7,0.7-10.2-5.6-12.9
	c-7.2-3.1-15.4-2.3-23.4-4c-13.3-2.8-24.4-15.9-24.6-29.6C78.8,77.5,91.7,66,91.7,66s11.5-12.9,26.8-12.6
	c13.7,0.2,26.8,11.3,29.6,24.6c1.7,8,0.9,16.2,4,23.4c2.8,6.3,8.2,6.7,12.9,5.6l58.2-58.1l55.4,55.4c0.9,4.3,0.3,9.1-5.4,11.6
	c-6.8,3-14.6,2.2-22.2,3.8c-12.6,2.6-23.1,15.1-23.3,28.1c-0.2,14.5,12,25.4,12,25.4s10.9,12.2,25.4,12c13-0.2,25.4-10.7,28.1-23.3
	c1.6-7.6,0.8-15.4,3.8-22.2c2.5-5.7,7.3-6.3,11.6-5.4l59.5,59.5l-61.7,61.7c-4,0.6-8.2-0.2-10.5-5.4c-2.9-6.7-2.2-14.3-3.7-21.7
	c-2.6-12.3-14.7-22.5-27.4-22.7c-14.1-0.2-24.8,11.7-24.8,11.7s-11.9,10.7-11.7,24.8c0.2,12.7,10.4,24.8,22.7,27.4
	c7.4,1.5,15,0.8,21.7,3.7c5.2,2.3,6.1,6.5,5.4,10.5l-57.3,57.3l-55.6-55.6c-5-1.4-11-1.2-14,5.6c-3.3,7.5-2.4,16-4.1,24.2
	c-2.9,13.8-16.4,25.2-30.6,25.4c-15.8,0.3-27.7-13-27.7-13s-13.3-11.9-13-27.7c0.2-14.2,11.7-27.7,25.4-30.6
	c8.2-1.7,16.7-0.9,24.2-4.1c6.8-3,7-8.9,5.6-14L75.9,196z"/>
<circle fill-rule="evenodd" clip-rule="evenodd" fill="#00953A" cx="201.3" cy="199.8" r="188.9"/>
<path display="none" fill-rule="evenodd" clip-rule="evenodd" fill="#00953A" d="M75.3,275.6c-32.6-16.5-46.3-44.7-41.6-84.1
	c-2.7-12.7,32.5-74.1,133.8-95.8C268.8,74,368.2,160.8,368.2,205.1c0,33.6-40.9,60-88.3,76.6l5.1,41.8l-18.1,7.2l-29.4-37.1
	c-38.5,8.4-74.6,10.1-90.9,3.6c-18.1-7.2-31.6-24.4-31.6-24.4l-0.7,0.1c-11.7-12.8-18.3-43.8-17.1-60.5
	c17.8-14.4,36.8-27.2,58.1-36.4c7.5-3.3,15.4-6.1,23.6-8.3l4.3,16.1l11.4-3.1l-4.3-15.8c12.5-2.6,25.9-3.9,40.3-3.8l0.1-11.8
	c-6.6-0.1-13,0.2-19.2,0.7l-2.3-16.9l-11.7,1.6l2.2,16.6c-17.8,2.5-34.1,7.3-49.2,13.8c-7.3,3.1-14.3,6.7-21.1,10.6l-11.1-16.2
	l-9.8,6.7l10.7,15.7c-9.7,6.1-18.9,12.9-27.9,20.1L74,187.6l-7.5,9.2l18.9,15.3c-1.1,17.1,4.6,44.8,15,61.8L75.3,275.6L75.3,275.6z
	 M130.7,225.4l6.7,9.8c17.3-11.9,37.1-20,59-24.9c22.1-4.9,46.3-6.7,72.2-5.7l2.3,0.1l1.8-1.5l39.8-34.4l-7.7-8.9l-38,32.8
	c-11-0.3-21.6-0.2-32,0.4L234,174l-11.8,0.4l0.7,19.6c-10,1-19.7,2.6-29.1,4.7c-8.1,1.8-15.9,4-23.4,6.7l-5.6-12l-10.7,5l5.3,11.3
	C149.2,214.1,139.7,219.2,130.7,225.4L130.7,225.4z M167.1,251.9l4.4,11l34.5-13.8l35.3,7.7l2.3,0.5l2-1.3l30.9-18.9l27.9,2.5
	l2.8,0.2l1.9-1.9l24.4-24.4l-8.4-8.4l-22.5,22.5l-27.1-2.5l-2-0.2l-1.7,1l-30.5,18.7l-34.8-7.6l-1.7-0.4l-1.7,0.7L167.1,251.9
	L167.1,251.9z M66.1,155.7l2.9,11.5l44.7-11.3l2.2-0.6l1.3-1.9l17.2-25.2l28.7,6l1.7,0.4l1.6-0.6l36.1-13.9l16.9,10.6l2.2,1.4
	l2.5-0.7l23.4-6.4l12,11.6l8.2-8.5l-14.5-14l-2.4-2.4l-3.2,0.9l-24.2,6.5l-17.2-10.8l-2.5-1.6l-2.7,1l-37.2,14.3l-30.8-6.4l-3.9-0.8
	l-2.2,3.3L108.7,145L66.1,155.7z"/>
<g display="none">
	<path display="inline" fill-rule="evenodd" clip-rule="evenodd" fill="#00953A" d="M307.3,180.4v123.5c0,19.5-16,35.5-35.5,35.5
		h-159c-19.5,0-35.5-16-35.5-35.5V180.4H307.3z"/>
	<rect x="68.8" y="159.1" display="inline" fill-rule="evenodd" clip-rule="evenodd" fill="#00953A" width="247" height="36.9"/>
	<polygon display="inline" fill-rule="evenodd" clip-rule="evenodd" fill="#FFFFFF" points="86.1,165 112.3,165 127.2,190.2 
		101.1,190.2 	"/>
	<rect x="92.2" y="223.3" display="inline" fill-rule="evenodd" clip-rule="evenodd" fill="#FFFFFF" width="194.9" height="5"/>
	<rect x="92.2" y="256.2" display="inline" fill-rule="evenodd" clip-rule="evenodd" fill="#FFFFFF" width="194.9" height="5"/>
	<rect x="92.2" y="289.8" display="inline" fill-rule="evenodd" clip-rule="evenodd" fill="#FFFFFF" width="194.9" height="5"/>
	<rect x="187.1" y="289.8" display="inline" fill-rule="evenodd" clip-rule="evenodd" fill="#FFFFFF" width="5" height="39.6"/>
	<polygon display="inline" fill-rule="evenodd" clip-rule="evenodd" fill="#FFFFFF" points="145.6,165 171.7,165 186.7,190.2 
		160.5,190.2 	"/>
	<polygon display="inline" fill-rule="evenodd" clip-rule="evenodd" fill="#FFFFFF" points="198.6,165 224.8,165 239.7,190.2 
		213.5,190.2 	"/>
	<polygon display="inline" fill-rule="evenodd" clip-rule="evenodd" fill="#FFFFFF" points="252.4,165 278.5,165 293.5,190.2 
		267.3,190.2 	"/>
	
		<rect x="61" y="91.8" transform="matrix(-0.9686 0.2488 -0.2488 -0.9686 390.5733 171.1259)" display="inline" fill-rule="evenodd" clip-rule="evenodd" fill="#00953A" width="247" height="36.9"/>
	<polygon display="inline" fill-rule="evenodd" clip-rule="evenodd" fill="#FFFFFF" points="78.5,124.4 103.9,117.9 124.6,138.6 
		99.2,145.1 	"/>
	<polygon display="inline" fill-rule="evenodd" clip-rule="evenodd" fill="#FFFFFF" points="136.1,109.6 161.4,103.1 182.1,123.9 
		156.8,130.4 	"/>
	<polygon display="inline" fill-rule="evenodd" clip-rule="evenodd" fill="#FFFFFF" points="187.4,96.5 212.8,89.9 233.5,110.7 
		208.2,117.2 	"/>
	<polygon display="inline" fill-rule="evenodd" clip-rule="evenodd" fill="#FFFFFF" points="239.5,83.1 264.9,76.6 285.6,97.3 
		260.2,103.8 	"/>
	<polygon display="inline" fill-rule="evenodd" clip-rule="evenodd" fill="#00953A" points="116.8,146.7 122.2,162.5 68.8,161.1 
		68.8,151.8 	"/>
</g>
<path display="none" fill-rule="evenodd" clip-rule="evenodd" fill="#00953A" d="M176.2,61.8c33.8,0,64.6,9.5,87,24.8
	c23.5,16.1,38,38.6,38,63.8c0,6.3-0.9,12.5-2.7,18.4c8.6,3,16.5,6.9,23.3,11.5c17.2,11.8,27.9,28.4,27.9,47.1
	c0,11.2-3.9,21.7-10.7,30.9c-5.6,7.5-13.2,14.1-22.3,19.4l1.3,23.8l0,0c0.1,2.6-0.8,5.3-2.8,7.4c-3.8,3.8-9.9,3.9-13.8,0.1
	l-19.1-18.8c-2.9,0.5-5.8,1-8.7,1.3v0l0,0c-4.8,0.5-9.6,0.8-14.4,0.8c-24.3,0-46.4-6.8-62.6-17.9c-13.7-9.3-23.2-21.7-26.6-35.7
	c-4.7-0.2-9.3-0.5-13.9-1c-4.9-0.6-9.7-1.3-14.3-2.2l-28.8,28.3c-3.8,3.8-10,3.7-13.8-0.1c-2-2-2.9-4.7-2.8-7.4h0l2-36.5
	c-13.5-7.6-24.7-17.1-32.8-27.9c-9.2-12.4-14.5-26.5-14.5-41.6c0-25.2,14.5-47.7,38-63.8C111.7,71.3,142.4,61.8,176.2,61.8
	L176.2,61.8z M294.5,220.8c-4.4,0-8,3.6-8,8s3.6,8,8,8c4.4,0,8-3.6,8-8S298.9,220.8,294.5,220.8L294.5,220.8z M262.5,220.8
	c-4.4,0-8,3.6-8,8s3.6,8,8,8c4.4,0,8-3.6,8-8S266.9,220.8,262.5,220.8L262.5,220.8z M133.8,140.3c-5.5,0-10,4.5-10,10
	c0,5.6,4.5,10,10,10c5.5,0,10.1-4.5,10.1-10C143.8,144.8,139.3,140.3,133.8,140.3L133.8,140.3z M213.1,140.3c-5.5,0-10,4.5-10,10
	c0,5.6,4.5,10,10,10c5.6,0,10.1-4.5,10.1-10C223.1,144.8,218.6,140.3,213.1,140.3L213.1,140.3z M172.9,140.3c-5.5,0-10,4.5-10,10
	c0,5.6,4.5,10,10,10c5.6,0,10.1-4.5,10.1-10C183,144.8,178.5,140.3,172.9,140.3L172.9,140.3z M290.4,186.6
	c-6.5,10.4-15.8,19.7-27.2,27.5c-19.2,13.2-44.6,22-72.8,24.2c3,7.6,9.1,14.5,17.2,20.1c13.1,8.9,31.3,14.5,51.6,14.5
	c4.3,0,8.4-0.2,12.2-0.7l0,0c4.1-0.5,8-1.2,11.8-2.1c3.6-0.8,7.2,0.4,9.5,3l4.5,4.4l-0.3-4.8c-0.2-4.1,2.1-7.7,5.6-9.4
	c8.8-4.4,16-10.1,20.9-16.7c4.4-5.9,6.8-12.4,6.8-19.2c0-11.8-7.4-22.8-19.4-31C305,192.4,298.1,189.1,290.4,186.6L290.4,186.6z
	 M252.2,102.7c-19.3-13.2-46.2-21.4-76-21.4s-56.7,8.2-76,21.4c-18.2,12.5-29.5,29.3-29.5,47.7c0,10.7,3.8,20.8,10.6,29.9
	c7.4,9.9,18.2,18.5,31.4,25.1c3.5,1.6,5.8,5.3,5.6,9.4l-1,17.6l14.2-13.9c2.3-2.5,5.9-3.8,9.5-3c5.6,1.3,11.4,2.3,17.3,3
	c5.8,0.7,11.8,1,18,1c29.8,0,56.7-8.2,76-21.4c18.2-12.5,29.5-29.3,29.5-47.7C281.7,132,270.4,115.1,252.2,102.7z"/>
<path display="none" fill-rule="evenodd" clip-rule="evenodd" fill="#00953A" d="M105.3,57.7h191.1h11.8v11.8v44L284.6,136V81.3
	H117.1v15.5l11.3-4.9l10.8-4.7l9.4,21.6l-10.8,4.7l-20.7,9v12.4l11.3-4.9l10.8-4.7l9.4,21.6l-10.8,4.7l-20.7,9v13.8l11.3-4.9
	l10.8-4.7l9.4,21.6l-10.8,4.7l-20.7,9v12.4l11.3-4.9l10.8-4.7l9.4,21.6l-10.8,4.7l-20.7,9v15.5l11.3-4.9l10.8-4.7l9.4,21.6
	l-10.8,4.7l-20.7,9v20.1v6.8h167.5v-51.9l23.6-22.6V318v11.8h-11.8H105.3H93.5V318v-18.6H68.8l-4.7-22.6L93.5,264v-5.8H68.8
	l-4.7-22.6l29.4-12.8v-2.7H68.8l-4.7-22.6l29.4-12.9v-4H68.8L64.1,158l29.4-12.9v-2.6H68.8l-4.7-22.6l29.4-12.9V69.5V57.7H105.3
	L105.3,57.7z M169,188.1v13.1h31.9v-13.1H169L169,188.1z M169,159.4v13.1h58.7v-13.1H169L169,159.4z M169,130.7v13.1h84.9v-13.1H169
	L169,130.7z M169,103v13.1h84.9V103H169L169,103z M202.4,274.2l18.8-1l18.8-1l-17-17.8l-17-17.8l-1.8,18.8L202.4,274.2L202.4,274.2z
	 M330.4,117.3L220.3,222.7l34,35.6l110.2-105.4L330.4,117.3z"/>
<g display="none">
	<polygon display="inline" fill-rule="evenodd" clip-rule="evenodd" fill="#00953A" points="294.6,236.2 294.6,288.4 110.9,288.4 
		110.9,236.2 70.9,236.2 70.9,288.4 70.9,328.4 110.9,328.4 294.6,328.4 334.6,328.4 334.6,288.4 334.6,236.2 	"/>
	<polygon display="inline" fill-rule="evenodd" clip-rule="evenodd" fill="#00953A" points="281.8,141.4 243,141.4 243,45.3 
		165.3,45.3 165.3,141.4 126.5,141.4 204.1,237.5 	"/>
</g>
<path display="none" fill-rule="evenodd" clip-rule="evenodd" fill="#FFFFFF" d="M70.7,264.6c-31.9-16.5-45.3-44.7-40.7-84
	c-2.7-12.6,31.9-74.1,131-95.8c99.1-21.7,196.5,65.1,196.5,109.3c0,33.6-40.1,60-86.4,76.6l5,41.8l-17.7,7.2l-28.8-37
	c-37.6,8.4-73,10.1-88.9,3.6c-17.7-7.2-31-24.4-31-24.4l-0.7,0.1c-11.4-12.8-17.9-43.8-16.8-60.4c17.4-14.4,36-27.2,56.9-36.4
	c7.4-3.3,15.1-6.1,23.1-8.3l4.3,16.1l11.2-3.1l-4.2-15.8c12.2-2.6,25.3-3.9,39.4-3.8l0.1-11.8c-6.5-0.1-12.7,0.2-18.8,0.7l-2.2-16.9
	l-11.5,1.6l2.2,16.6c-17.5,2.5-33.4,7.3-48.2,13.8c-7.2,3.1-14,6.7-20.7,10.5L113,148.5l-9.6,6.7l10.5,15.7
	c-9.5,6.1-18.5,12.9-27.3,20.1l-17.2-14.3l-7.3,9.2l18.5,15.3c-1.1,17.1,4.5,44.8,14.7,61.7L70.7,264.6L70.7,264.6z M125,214.4
	l6.5,9.7c17-11.9,36.4-20,57.7-24.9c21.6-4.9,45.3-6.7,70.7-5.7l2.3,0.1l1.7-1.5l38.9-34.3l-7.6-8.9L258,181.7
	c-10.7-0.3-21.2-0.2-31.3,0.4l-0.7-19.1l-11.6,0.4l0.7,19.6c-9.8,1-19.3,2.6-28.5,4.7c-7.9,1.8-15.6,4-22.9,6.7l-5.5-12l-10.5,5
	l5.2,11.3C143.1,203.1,133.7,208.3,125,214.4L125,214.4z M160.6,240.9l4.3,11l33.7-13.8l34.6,7.7l2.2,0.5l2-1.2l30.2-18.9l27.3,2.5
	l2.7,0.2l1.9-1.9l23.9-24.4l-8.2-8.4l-22,22.4l-26.5-2.5l-1.9-0.2l-1.6,1l-29.9,18.6l-34-7.6l-1.7-0.4l-1.7,0.7L160.6,240.9
	L160.6,240.9z M61.7,144.8l2.8,11.5l43.8-11.3l2.1-0.6l1.2-1.9l16.8-25.2l28,6l1.7,0.4l1.6-0.6l35.3-13.8l16.5,10.6l2.2,1.4l2.4-0.7
	l22.9-6.3l11.8,11.6l8.1-8.5l-14.1-14l-2.4-2.4l-3.2,0.9l-23.7,6.5l-16.9-10.8l-2.5-1.6l-2.7,1l-36.5,14.3l-30.2-6.4l-3.8-0.8
	l-2.2,3.3l-17.8,26.6L61.7,144.8z"/>
<path display="none" fill-rule="evenodd" clip-rule="evenodd" fill="#00953A" d="M83.6,111.8c2.2-0.9,4.3-1.9,6.5-2.8
	c3.3-1.4,7.1,0.1,8.5,3.4c0.6,1.3,1.1,2.6,1.7,3.9c1.4,3.3-0.1,7.1-3.4,8.5c-2.2,0.9-4.4,1.8-6.5,2.8c-3.3,1.4-7.1-0.1-8.5-3.4
	c-0.6-1.3-1.1-2.6-1.7-4C78.8,117,80.3,113.2,83.6,111.8L83.6,111.8z M198.3,305.3l93.9-40c4.9-2.1,7.4-6.2,3.9-14.6L271.6,193
	c-3.7-8.3-8.3-9.4-13.3-7.3l-93.9,40c-4.9,2.1-7.4,6.2-3.9,14.6l24.6,57.7C188.7,306.3,193.4,307.4,198.3,305.3L198.3,305.3z
	 M310.6,284.5l14.4,33.8l5.1-2.2l-0.6-1.5c-1.4-3.3,0.1-7.1,3.4-8.5l6.5-2.8c3.3-1.4,7.1,0.1,8.5,3.4l0.7,1.5l6.2-2.7L234.2,22.7
	l-6.2,2.7l1.1,2.7c1.4,3.3-0.1,7.1-3.4,8.5l-6.5,2.8c-3.3,1.4-7.1-0.1-8.5-3.4l-1.2-2.7l-5.1,2.2l13.1,30.7c3.5,8.4,1,12.5-3.9,14.6
	l-93.9,40c-5,2.1-9.6,1-13.3-7.3L93.3,82.7l-6.2,2.7l1.2,2.7c1.4,3.3-0.2,7.1-3.4,8.5l-6.5,2.8c-3.3,1.4-7.1-0.1-8.5-3.4l-1.2-2.7
	l-5.1,2.2l120.5,282.9l5.1-2.2l-0.7-1.5c-1.4-3.3,0.1-7.1,3.4-8.5l6.5-2.8c3.3-1.4,7.1,0.1,8.5,3.4l0.7,1.5l6.2-2.7l-14.4-33.9
	c-3.5-8.4-1-12.5,3.9-14.6l93.9-40C302.2,275.1,306.9,276.1,310.6,284.5L310.6,284.5z M159.4,213.8c-5,2.1-9.6,1-13.3-7.3
	l-25.2-59.3c-3.5-8.4-1-12.5,3.9-14.6l93.9-40c5-2.1,9.6-1,13.3,7.3l25.2,59.3c3.5,8.4,1,12.5-3.9,14.6L159.4,213.8L159.4,213.8z
	 M224.5,51.7c2.2-0.9,4.4-1.8,6.5-2.8c3.3-1.4,7.1,0.1,8.5,3.4c0.6,1.3,1.1,2.6,1.7,4c1.4,3.3-0.1,7.1-3.4,8.5
	c-2.2,0.9-4.3,1.8-6.5,2.8c-3.3,1.4-7.1-0.1-8.5-3.4c-0.5-1.3-1.1-2.6-1.7-3.9C219.7,57,221.2,53.1,224.5,51.7L224.5,51.7z
	 M236.5,80c2.2-0.9,4.3-1.9,6.5-2.8c3.3-1.4,7.1,0.1,8.5,3.4c0.6,1.3,1.1,2.6,1.7,4c1.4,3.3-0.1,7.1-3.4,8.5
	c-2.2,0.9-4.3,1.8-6.5,2.8c-3.3,1.4-7.1-0.1-8.5-3.4c-0.6-1.3-1.1-2.6-1.7-4C231.7,85.2,233.2,81.4,236.5,80L236.5,80z M248.6,108.3
	c2.2-0.9,4.3-1.9,6.5-2.8c3.3-1.4,7.1,0.1,8.5,3.4c0.6,1.3,1.1,2.6,1.7,3.9c1.4,3.3-0.1,7.1-3.4,8.5c-2.2,0.9-4.4,1.8-6.5,2.8
	c-3.3,1.4-7.1-0.1-8.5-3.4c-0.6-1.3-1.1-2.6-1.7-4C243.7,113.5,245.3,109.7,248.6,108.3L248.6,108.3z M260.6,136.5
	c2.2-0.9,4.3-1.9,6.5-2.8c3.3-1.4,7.1,0.1,8.5,3.4c0.6,1.3,1.1,2.6,1.7,3.9c1.4,3.3-0.1,7.1-3.4,8.5c-2.2,0.9-4.3,1.8-6.5,2.8
	c-3.3,1.4-7.1-0.1-8.5-3.4c-0.6-1.3-1.1-2.6-1.7-3.9C255.8,141.8,257.3,137.9,260.6,136.5L260.6,136.5z M272.7,164.8
	c2.2-0.9,4.3-1.8,6.5-2.8c3.3-1.4,7.1,0.1,8.5,3.4c0.6,1.3,1.1,2.6,1.7,3.9c1.4,3.3-0.1,7.1-3.4,8.5c-2.2,0.9-4.3,1.9-6.5,2.8
	c-3.3,1.4-7.1-0.1-8.5-3.4c-0.6-1.3-1.1-2.6-1.7-3.9C267.8,170,269.4,166.2,272.7,164.8L272.7,164.8z M284.7,193.1
	c2.2-0.9,4.4-1.8,6.5-2.8c3.3-1.4,7.1,0.1,8.5,3.4c0.6,1.3,1.1,2.6,1.7,4c1.4,3.3-0.1,7.1-3.4,8.5c-2.2,0.9-4.3,1.9-6.5,2.8
	c-3.3,1.4-7.1-0.1-8.5-3.4c-0.5-1.3-1.1-2.6-1.7-3.9C279.9,198.3,281.4,194.5,284.7,193.1L284.7,193.1z M296.7,221.3
	c2.2-0.9,4.3-1.9,6.5-2.8c3.3-1.4,7.1,0.1,8.5,3.4c0.6,1.3,1.1,2.6,1.7,3.9c1.4,3.3-0.1,7.1-3.4,8.5c-2.2,0.9-4.3,1.8-6.5,2.8
	c-3.3,1.4-7.1-0.1-8.5-3.4c-0.6-1.3-1.1-2.6-1.7-4C291.9,226.5,293.4,222.7,296.7,221.3L296.7,221.3z M308.8,249.6
	c2.2-0.9,4.4-1.9,6.5-2.8c3.3-1.4,7.1,0.2,8.5,3.4c0.6,1.3,1.1,2.6,1.7,3.9c1.4,3.3-0.1,7.1-3.4,8.5c-2.2,0.9-4.3,1.8-6.5,2.8
	c-3.3,1.4-7.1-0.1-8.5-3.4c-0.6-1.3-1.1-2.6-1.7-3.9C304,254.8,305.5,251,308.8,249.6L308.8,249.6z M320.8,277.8
	c2.2-0.9,4.3-1.9,6.5-2.8c3.3-1.4,7.1,0.1,8.5,3.4c0.6,1.3,1.1,2.6,1.7,3.9c1.4,3.3-0.1,7.1-3.4,8.5c-2.2,0.9-4.3,1.8-6.5,2.8
	c-3.3,1.4-7.1-0.1-8.5-3.4c-0.6-1.3-1.1-2.6-1.7-3.9C316,283.1,317.5,279.2,320.8,277.8L320.8,277.8z M95.6,140
	c2.2-0.9,4.4-1.9,6.5-2.8c3.3-1.4,7.1,0.1,8.5,3.4c0.6,1.3,1.1,2.6,1.7,3.9c1.4,3.3-0.1,7.1-3.4,8.5c-2.2,0.9-4.3,1.8-6.5,2.8
	c-3.3,1.4-7.1-0.1-8.5-3.4c-0.6-1.3-1.1-2.6-1.7-3.9C90.8,145.3,92.4,141.4,95.6,140L95.6,140z M107.7,168.3
	c2.2-0.9,4.3-1.8,6.5-2.8c3.3-1.4,7.1,0.1,8.5,3.4c0.6,1.3,1.1,2.6,1.7,3.9c1.4,3.3-0.1,7.1-3.4,8.5c-2.2,0.9-4.3,1.9-6.5,2.8
	c-3.3,1.4-7.1-0.1-8.5-3.4c-0.6-1.3-1.1-2.6-1.7-3.9C102.9,173.5,104.4,169.7,107.7,168.3L107.7,168.3z M119.7,196.6
	c2.2-0.9,4.3-1.8,6.5-2.8c3.3-1.4,7.1,0.1,8.5,3.4c0.6,1.3,1.1,2.6,1.7,3.9c1.4,3.3-0.1,7.1-3.4,8.5c-2.2,0.9-4.3,1.8-6.5,2.8
	c-3.3,1.4-7.1-0.1-8.5-3.4c-0.6-1.3-1.1-2.6-1.7-3.9C114.9,201.8,116.4,198,119.7,196.6L119.7,196.6z M131.8,224.8
	c2.2-0.9,4.3-1.8,6.5-2.8c3.3-1.4,7.1,0.1,8.5,3.4c0.6,1.3,1.1,2.6,1.7,3.9c1.4,3.3-0.1,7.1-3.4,8.5c-2.2,0.9-4.3,1.8-6.5,2.8
	c-3.3,1.4-7.1-0.1-8.5-3.4c-0.6-1.3-1.1-2.6-1.7-3.9C127,230,128.5,226.2,131.8,224.8L131.8,224.8z M143.8,253.1
	c2.2-0.9,4.3-1.9,6.5-2.8c3.3-1.4,7.1,0.1,8.5,3.4c0.6,1.3,1.1,2.6,1.7,3.9c1.4,3.3-0.1,7.1-3.4,8.5c-2.2,0.9-4.4,1.8-6.5,2.8
	c-3.3,1.4-7.1-0.1-8.5-3.4c-0.6-1.3-1.1-2.6-1.7-3.9C139,258.3,140.5,254.5,143.8,253.1L143.8,253.1z M155.8,281.3
	c2.2-0.9,4.4-1.9,6.5-2.8c3.3-1.4,7.1,0.1,8.5,3.4c0.6,1.3,1.1,2.6,1.7,3.9c1.4,3.3-0.1,7.1-3.4,8.5c-2.2,0.9-4.3,1.8-6.5,2.8
	c-3.3,1.4-7.1-0.1-8.5-3.4c-0.6-1.3-1.1-2.6-1.7-3.9C151,286.6,152.6,282.7,155.8,281.3L155.8,281.3z M167.9,309.6
	c2.2-0.9,4.3-1.8,6.5-2.8c3.3-1.4,7.1,0.1,8.5,3.4c0.6,1.3,1.1,2.6,1.7,3.9c1.4,3.3-0.1,7.1-3.4,8.5c-2.2,0.9-4.3,1.9-6.5,2.8
	c-3.3,1.4-7.1-0.1-8.5-3.4c-0.6-1.3-1.1-2.6-1.7-3.9C163.1,314.8,164.6,311,167.9,309.6L167.9,309.6z M179.9,337.9
	c2.2-0.9,4.3-1.8,6.5-2.8c3.3-1.4,7.1,0.1,8.5,3.4c0.6,1.3,1.1,2.6,1.7,3.9c1.4,3.3-0.1,7.1-3.4,8.5c-2.2,0.9-4.3,1.8-6.5,2.8
	c-3.3,1.4-7.1-0.1-8.5-3.4c-0.6-1.3-1.1-2.6-1.7-3.9C175.1,343.1,176.7,339.3,179.9,337.9z"/>
<path display="none" fill-rule="evenodd" clip-rule="evenodd" fill="#00953A" d="M136.4,78.1l-0.1,0.1l-0.1,0.1l0,0l0,0l-0.1,0.2
	l0,0.1l0,0.1l-0.1,0.2l0,0l0,0l0,0l-0.2,0.3l0,0l-0.2,0.3l0,0v0l0,0l-0.2,0.3l0,0l0,0.1l-0.1,0.1l0,0.1l0,0.1l-0.1,0.1l-0.1,0.1
	l0,0.1l0,0.1l-0.1,0.1l-0.1,0.1l0,0l-0.1,0.1l-0.1,0.1l0,0.1l0,0l-0.1,0.2l-0.1,0.1l0,0l-0.1,0.3l0,0l0,0l-0.1,0.3l0,0l0,0h0
	l-0.1,0.3l0,0l0,0l-0.1,0.3l0,0l0,0l-0.1,0.3l0,0l0,0l-0.1,0.2l0,0.1l0,0l-0.1,0.3l0,0l-0.1,0.4v0l0,0.1l-0.1,0.3l0,0l0,0.3l0,0
	l0,0.1l0,0.3l0,0l0,0.4v0l0,0.1l0,0.3l0,0v0l0,0.2l0,0.2v0V87l0,0.3l0,0v0.1l0,0.1v0v0.1l0,0.1v0v0.1l0,0.1l0,0l0,0.1l0,0.1l0,0
	l0,0.1l0,0.1v0l0,0.1l0,0.1v0l0,0.1l0,0.1v0l0,0.1l0,0.1l0,0l0,0l0,0.1l0,0l0,0l0,0.1l0,0l0,0l0,0.1l0,0l0,0l0,0.1l0,0.1l0,0l0,0.1
	l0,0.1l0,0l0,0.1l0,0l0,0.1l0,0.1l0,0l0,0.1l0,0.1l0,0l0,0.1l0,0.1l0,0l0,0.1l0,0.1l0,0l0,0.1l0,0.1l0,0l0,0.1l0,0.1l0,0l0,0.1
	l0,0.1l0,0l0,0.1l0,0.1l0,0l0,0.1l0,0.1l0,0l0,0.1l0,0.1l0,0l0,0.1l0,0.1l0,0l0,0.1l0,0.1l0,0l0,0.1l0,0.1l0,0l0,0l0,0.1l0,0l0,0
	l0,0.1l0,0l0,0l0,0.1l0,0l0,0l0,0.1l0,0l0,0c0.6,1.7,1.4,3.2,2.5,4.6c-0.1-0.8-0.2-1.6-0.2-2.4l0,0c0-0.7,0.1-1.4,0.2-2.2l0,0
	c0-0.2,0.1-0.4,0.1-0.7l0,0c0.2-0.8,0.4-1.6,0.6-2.3l0,0c0.5-1.3,1.1-2.5,1.9-3.6l0,0c0.1-0.2,0.2-0.3,0.4-0.5l0.1-0.1l0.2-0.2
	l0-0.1l0.2-0.2l0.1-0.1l0.2-0.2l0.1-0.1l0.2-0.2l0,0c0.4-0.5,0.9-1,1.4-1.4l0.1-0.1l0.2-0.1l0.1-0.1l0.2-0.2l0.1,0l0.2-0.2l0.1,0
	c0.2-0.1,0.4-0.2,0.5-0.4h0l0.2-0.2l0,0l0.1-0.1l0.2-0.1l0.3-0.2l0,0l0.1-0.1l0.2-0.1l0,0l0.3-0.1l0,0l0.2-0.1l0.1-0.1l0.2-0.1
	l0.2-0.1l0.1-0.1l0.2-0.1l0.2-0.1l0.1-0.1l0.2-0.1l0.2-0.1l0.1,0l0.2-0.1l0.1,0l0.2-0.1l0.1,0l0,0l0.3-0.1l0,0l0.3-0.1l0,0l0.2,0
	l0.2-0.1l0.1,0l0.3-0.1l0,0l0.3-0.1l0.1,0l0.3,0l0.1,0l0.2,0l0.2,0l0.2,0l0.2,0l0.2,0l0.1,0l0.2,0l0.2,0h0l0.3,0h0l0.4,0h72.7
	c4.9,0,9.3,2.3,12.2,5.9l0-0.1l0-0.1l0-0.1l0,0l0-0.1l0-0.1l0,0l0-0.1l0-0.1l0-0.1l0-0.1l0,0l0-0.1l0-0.1l0-0.1l0,0l-0.1-0.3l0,0
	l-0.1-0.2l0-0.1l0,0l0-0.1l-0.1-0.2l0,0l-0.1-0.2l0-0.1l0-0.1l-0.1-0.2l0-0.1l0-0.1l0-0.1l0-0.1l0,0l0-0.1l0-0.1l0-0.1l0,0l0-0.1
	l-0.1-0.2l0,0l0-0.1l-0.1-0.2l0,0l0-0.1l-0.1-0.1l-0.1-0.1l0,0l0-0.1l-0.1-0.2l0,0l-0.1-0.3l0,0l0,0l-0.1-0.1l-0.1-0.1l-0.1-0.1l0,0
	l-0.1-0.1l-0.1-0.2l0,0l0,0l-0.1-0.1l-0.1-0.1l-0.1-0.1l0,0l-0.1-0.1l-0.1-0.1l-0.1-0.1l0,0l-0.1-0.1l-0.1-0.1l0,0l0,0l-0.1-0.1
	l-0.1-0.1c-2.8-3.8-7.4-6.3-12.5-6.3h-72.7C143.8,71.8,139.2,74.3,136.4,78.1L136.4,78.1z M239.7,218.8v-8.2h-80.3v8.2H239.7
	c-11.9,0-21.7,9.8-21.7,21.7v8.1h-58.6v8.2H218v32.8h-90.3c-5.4,0-10.2-2.2-13.8-5.7c-3.5-3.5-5.7-8.4-5.7-13.8V111.9
	c0-5.4,2.2-10.2,5.7-13.8c2.9-2.9,6.8-5,11.1-5.6c2.7,7.8,10.2,13.5,18.9,13.5h84.4c8.7,0,16.2-5.7,18.9-13.5
	c4.5,0.5,8.5,2.6,11.5,5.6c3.5,3.5,5.7,8.4,5.7,13.8v106.8H239.7L239.7,218.8z M278.8,218.8h32.3c11.9,0,21.7,9.8,21.7,21.7v71.4
	c0,11.9-9.8,21.7-21.7,21.7h-71.4c-11.9,0-21.7-9.8-21.7-21.7V304h-90.3c-9.3,0-17.8-3.8-23.9-9.9c-6.1-6.1-9.9-14.6-9.9-23.9V111.9
	c0-9.3,3.8-17.8,9.9-23.9c5.7-5.7,13.3-9.3,21.8-9.9c3.1-7.1,10.2-12,18.3-12h84.4c8.2,0,15.2,5,18.3,12c8.7,0.4,16.5,4.1,22.2,9.9
	c6.1,6.1,9.9,14.6,9.9,23.9V218.8L278.8,218.8z M126.4,238.1h-3.6v3.6v22.4v3.6h3.6h22.4h3.6v-3.6v-22.4v-3.6h-3.6H126.4
	L126.4,238.1z M145.3,245.3H130v15.2h15.2V245.3L145.3,245.3z M126.4,200.1h-3.6v3.6v22.4v3.6h3.6h22.4h3.6v-3.6v-22.4v-3.6h-3.6
	H126.4L126.4,200.1z M145.3,207.3H130v15.2h15.2V207.3L145.3,207.3z M159.4,171.2v8.2h80.3v-8.2H159.4L159.4,171.2z M126.4,160.8
	h-3.6v3.6v22.4v3.6h3.6h22.4h3.6v-3.6v-22.4v-3.6h-3.6H126.4L126.4,160.8z M145.3,167.9H130v15.2h15.2V167.9L145.3,167.9z
	 M159.4,134.2v8.2h80.3v-8.2H159.4L159.4,134.2z M126.4,123.7h-3.6v3.6v22.4v3.6h3.6h22.4h3.6v-3.6v-22.4v-3.6h-3.6H126.4
	L126.4,123.7z M145.3,130.8H130v15.2h15.2V130.8L145.3,130.8z M233.6,277.5l28.5,38.6c3.5,4.7,10.2,5.7,15,2.2
	c1.3-1,2.4-2.2,3.1-3.6l36.6-65.5c2.9-5.2,1-11.7-4.2-14.6c-5.2-2.9-11.7-1-14.6,4.2L269.5,290l-18.7-25.3c-3.5-4.7-10.2-5.7-15-2.2
	C231.1,266,230.1,272.7,233.6,277.5z"/>
<path display="none" fill-rule="evenodd" clip-rule="evenodd" fill="#FFFFFF" d="M200.5,77.2c67.7,0,122.6,54.9,122.6,122.6
	c0,67.7-54.9,122.6-122.6,122.6c-67.7,0-122.6-54.9-122.6-122.6C77.9,132.1,132.8,77.2,200.5,77.2L200.5,77.2z M241.1,135.5
	l-9.6,16.7c3.4,2.2,6.5,4.7,9.4,7.6c10.2,10.2,16.5,24.3,16.5,39.8s-6.3,29.6-16.5,39.8c-10.2,10.2-24.3,16.5-39.8,16.5
	c-15.5,0-29.6-6.3-39.8-16.5c-10.2-10.2-16.5-24.3-16.5-39.8s6.3-29.6,16.5-39.8c2.3-2.3,4.9-4.5,7.6-6.3l-9.7-16.7
	c-4.1,2.8-8,5.9-11.5,9.4c-13.7,13.7-22.1,32.6-22.1,53.4s8.5,39.8,22.1,53.4c13.7,13.7,32.6,22.1,53.4,22.1
	c20.9,0,39.8-8.5,53.4-22.1c13.7-13.7,22.1-32.6,22.1-53.4s-8.5-39.8-22.1-53.4C250.4,142.1,245.9,138.5,241.1,135.5L241.1,135.5z
	 M189.8,95v92.1h20.6V95H189.8z"/>
<path display="none" fill-rule="evenodd" clip-rule="evenodd" fill="#FFFFFF" d="M175.1,340.6c0.9,13.2,11.9,23.6,25.3,23.6
	c11.3,0,20.8-7.3,24.1-17.4L175.1,340.6L175.1,340.6z M239.3,321.4c5.8,0.7,10.5,6,10.5,11.8l0,0c0,5.8-4.7,9.9-10.5,9.2l-76.2-9.5
	c-5.8-0.7-10.5-6.1-10.5-11.8l0,0c0-5.8,4.7-9.9,10.5-9.2L239.3,321.4L239.3,321.4z M291.3,133.7l33.2-19.2l-8.8-15.4l-33.2,19.2
	L291.3,133.7L291.3,133.7z M118.7,116.3L85.5,97.1l-8.9,15.4l33.2,19.2L118.7,116.3L118.7,116.3z M158.8,83.5l-19.2-33.2l-15.4,8.8
	l19.2,33.2L158.8,83.5L158.8,83.5z M258.5,93.5l19.2-33.2l-15.4-8.9l-19.2,33.2L258.5,93.5L258.5,93.5z M210.1,75.1V36.8h-17.8v38.3
	H210.1L210.1,75.1z M239.3,291l-76.2-9.5c-5.8-0.7-10.5,3.4-10.5,9.2l0,0c0,5.8,4.7,11.1,10.5,11.8l76.2,9.5
	c5.8,0.7,10.5-3.4,10.5-9.2l0,0C249.8,297.1,245.1,291.7,239.3,291L239.3,291z M201.5,103.8c-41.6,0-75.3,30.8-75.3,68.8
	c0,39,40.3,58.4,42.5,97.3h65c2.2-38.8,43.1-58.5,43.1-97.3C276.9,134.6,243.1,103.8,201.5,103.8z"/>
<g display="none">
	<polygon display="inline" fill="#FFFFFF" points="141.9,142.6 138.7,146.1 68.3,146.1 68.3,262.1 142.8,262.1 175.5,297.8 
		196.2,297.8 196.2,201.9 196.2,106 175.5,106 	"/>
	<path display="inline" fill="#FFFFFF" d="M257.3,144.4c-5.4-4.7-13.6-4.2-18.3,1.2c-4.7,5.4-4.2,13.6,1.2,18.3
		c18.2,19,18.5,48-2.5,65.8c-5.8,4.1-7.2,12.2-3.1,18.1c4.1,5.8,12.3,7.2,18.1,3C289,223.8,289.6,174.9,257.3,144.4z"/>
	<path display="inline" fill="#FFFFFF" d="M323.2,149.5c-6.9-16.1-17.5-31-31.8-43.3c-5.4-4.7-13.6-4.1-18.3,1.3
		c-4.7,5.4-4.1,13.6,1.3,18.3c11.2,9.7,19.5,21.4,24.9,34c5.7,13.2,8.1,27.3,7.4,41.1c-0.7,12-3.8,24-9.2,35.1
		c-5.2,10.7-12.6,20.6-21.9,28.7c-5.4,4.7-5.9,12.9-1.2,18.3c4.7,5.4,12.9,6,18.3,1.2c12-10.4,21.4-23.1,28.2-36.8
		c6.9-14.2,10.9-29.5,11.8-45C333.6,184.5,330.4,166.4,323.2,149.5z"/>
</g>
<path display="none" fill-rule="evenodd" clip-rule="evenodd" fill="#FFFFFF" d="M269.1,99.1c20.6,17.8,32,42.3,33.8,67.4
	c1.8,25.2-6,51-23.8,71.6c-17.8,20.6-42.3,32-67.4,33.8c-20.1,1.4-40.6-3.2-58.6-14.3l-9.2,10.7l9,7.8l-53.7,62l-36.7-31.8l53.7-62
	l9,7.8l8.6-10c-16.5-17.1-25.8-39-27.4-61.4c-1.8-25.2,6-51,23.8-71.6c17.8-20.6,42.3-32,67.4-33.8
	C222.7,73.5,248.5,81.3,269.1,99.1L269.1,99.1z M270.9,168.8c-1.2-17-8.9-33.5-22.8-45.5c-13.9-12-31.3-17.3-48.3-16.1
	c-17,1.2-33.5,8.9-45.5,22.8c-12,13.9-17.3,31.3-16.1,48.3c1.2,17,8.9,33.5,22.8,45.5c13.9,12,31.3,17.3,48.3,16.1
	c17-1.2,33.5-8.9,45.5-22.8C266.9,203.3,272.1,185.8,270.9,168.8z"/>
<rect x="66.8" y="263.3" display="none" fill-rule="evenodd" clip-rule="evenodd" fill="#00953A" width="273" height="46.1"/>
<rect x="66.8" y="180.8" display="none" fill-rule="evenodd" clip-rule="evenodd" fill="#00953A" width="273" height="46.1"/>
<rect x="66.8" y="94.3" display="none" fill-rule="evenodd" clip-rule="evenodd" fill="#00953A" width="273" height="46.1"/>
<g display="none">
	<path display="inline" fill="#00953A" d="M217.4,151l22.4-2.1c-4.1-4.7-7.3-10.4-9.1-16.6L217.4,151z"/>
	<path display="inline" fill="#00953A" d="M240.2,174.5l18.3-13c-6.1-2.1-11.6-5.5-16.2-9.9L240.2,174.5z"/>
	<path display="inline" fill="#00953A" d="M315.3,111.8c0.5,2.7,0.8,5.5,0.8,8.4c0,3.6-0.5,7.2-1.3,10.5l20.9-9.6L315.3,111.8z"/>
	<path display="inline" fill="#00953A" d="M313.8,134.3c-2.1,6.1-5.5,11.6-9.9,16.2l22.9,2.2L313.8,134.3z"/>
	<path display="inline" fill="#00953A" d="M272.6,86.3c-18.8,0-33.9,15.2-33.9,33.9c0,18.7,15.2,33.9,33.9,33.9
		c18.7,0,33.9-15.2,33.9-33.9C306.5,101.5,291.3,86.3,272.6,86.3z"/>
	<path display="inline" fill="#00953A" d="M262.1,162.5l9.6,20.9L281,163c-2.7,0.5-5.5,0.8-8.4,0.8
		C269,163.8,265.4,163.4,262.1,162.5z"/>
	<path display="inline" fill="#00953A" d="M303.4,175.5l-2.1-22.4c-4.7,4.2-10.4,7.3-16.6,9.1L303.4,175.5z"/>
	<path display="inline" fill="#00953A" d="M229,120.3c0-3.6,0.4-7.2,1.3-10.5l-20.9,9.6l20.5,9.4C229.3,125.9,229,123.1,229,120.3z"
		/>
	<path display="inline" fill="#00953A" d="M327.8,89.5l-22.4,2.1c4.1,4.7,7.3,10.4,9.1,16.6L327.8,89.5z"/>
	<path display="inline" fill="#00953A" d="M241.3,90l-22.9-2.2l13,18.3C233.5,100.1,236.9,94.6,241.3,90z"/>
	<path display="inline" fill="#00953A" d="M279.2,216.1c-19.6-0.3-38,2.7-54.6,9.4c-20.6-9.3-42-15.6-64.6-17.2v-9.4
		c10.5-4.2,18.1-16.8,18.1-31.8c0-18.4-11.5-33.3-25.7-33.3c-6.5,0-12.4,3.1-16.9,8.3c-4-3.4-8.8-5.4-14-5.4
		c-9.7,0-18.1,6.9-22.5,17.2c-4.1-3.6-9.1-5.7-14.4-5.7C70.5,148.1,59,163,59,181.4c0,15.1,7.8,27.8,18.4,31.9v10.3
		c-4.6,2-9.2,4.2-13.9,6.6v84.4c23.2-67.8,108.9-94.2,157.3-87.5c-32.4,14.4-57.1,43.4-68.5,88.6c10.7,0,77.7,0,77.7,0
		c-1.8-27.2,6.3-50.5,23.4-70.1c-9.1,18.5-12,42.3-7.3,70.1c10.7,0,95.5,0,95.5,0l0.3-113.8C317,200.1,295.6,205.1,279.2,216.1z
		 M71.2,180.9c-1.6,9-0.3,17.2,3.1,23c-5.8-5-9.7-13.6-9.7-23.3c0-15.4,9.6-27.9,21.5-27.9c1.2,0,2.4,0.1,3.6,0.4
		C81,157.2,73.5,168,71.2,180.9z M114.2,211.6c-7.5,1.6-15.2,3.8-23,6.5v-4.5c6.8-2.3,12.5-8.2,15.9-16.1c2.1,1.9,4.5,3.4,7.1,4.3
		V211.6z M146.2,207.9c-5.9,0.1-11.9,0.5-18,1.3v-7.1c3.9-1.3,7.4-3.8,10.4-7.2c2.3,2,4.9,3.4,7.7,4.3V207.9z M143.7,152.9
		c-1.2-2.6-2.7-5-4.4-7.1c3.9-4.6,9-7.5,14.7-7.5c1.2,0,2.4,0.1,3.6,0.4C152.1,141.3,147.2,146.4,143.7,152.9z"/>
	<path display="inline" fill="#00953A" d="M260.6,78.4L241.8,65l2.1,22.4C248.7,83.3,254.3,80.2,260.6,78.4z"/>
	<path display="inline" fill="#00953A" d="M305,66l-18.3,13c6.1,2.1,11.6,5.5,16.1,9.9L305,66z"/>
	<path display="inline" fill="#00953A" d="M283.1,78L273.5,57l-9.4,20.5c2.7-0.5,5.5-0.8,8.4-0.8C276.2,76.7,279.7,77.1,283.1,78z"
		/>
</g>
<path display="none" fill-rule="evenodd" clip-rule="evenodd" fill="#00953A" d="M209.1,348.7l27.1-47.3l27.1-47.3l13.3,21.6
	c30.9-29.2,46.6-67.3,35.7-106l7.1-4.1c32.3,52.6,32.3,111.5-13.5,157.7l12.4,20.1l-54.6,2.6L209.1,348.7L209.1,348.7z M193.5,64.1
	l-27.1,47.3l-27.1,47.3L126,137.1c-28.7,27.1-44.3,61.9-37.7,97.6l-9.3,5.3C51.1,189.4,53,133.7,96.7,89.5L84.3,69.4l54.6-2.6
	L193.5,64.1z M141.6,233.9c-14-7.1-19.9-19.2-17.8-36.1c-1.2-5.4,14-31.8,57.4-41.1c43.4-9.3,86.1,27.9,86.1,46.9
	c0,14.4-17.6,25.8-37.9,32.9l2.2,17.9l-7.8,3.1l-12.6-15.9c-16.5,3.6-32,4.3-39,1.6c-7.8-3.1-13.6-10.5-13.6-10.5l-0.3,0
	c-5-5.5-7.8-18.8-7.3-25.9c7.6-6.2,15.8-11.7,24.9-15.6c3.2-1.4,6.6-2.6,10.1-3.6l1.9,6.9l4.9-1.3l-1.8-6.8
	c5.4-1.1,11.1-1.7,17.3-1.6l0-5.1c-2.8,0-5.6,0.1-8.2,0.3l-1-7.2l-5,0.7l1,7.1c-7.7,1.1-14.6,3.2-21.1,5.9c-3.1,1.3-6.1,2.9-9.1,4.5
	l-4.8-7l-4.2,2.9l4.6,6.7c-4.1,2.6-8.1,5.5-11.9,8.6l-7.5-6.1l-3.2,3.9l8.1,6.6c-0.5,7.3,2,19.2,6.5,26.5L141.6,233.9L141.6,233.9z
	 M166.3,212.5l2.9,4.2c7.4-5.1,15.9-8.6,25.3-10.7c9.5-2.1,19.8-2.9,31-2.5l1,0l0.8-0.6l17.1-14.7l-3.3-3.8l-16.3,14.1
	c-4.7-0.1-9.3-0.1-13.7,0.2l-0.3-8.2l-5.1,0.2l0.3,8.4c-4.3,0.4-8.5,1.1-12.5,2c-3.5,0.8-6.8,1.7-10.1,2.9l-2.4-5.2l-4.6,2.1
	l2.3,4.9C174.3,207.7,170.2,209.9,166.3,212.5L166.3,212.5z M181.9,223.9l1.9,4.7l14.8-5.9l15.2,3.3l1,0.2l0.9-0.5l13.3-8.1l12,1.1
	l1.2,0.1l0.8-0.8l10.5-10.5l-3.6-3.6l-9.6,9.6l-11.6-1.1l-0.8-0.1l-0.7,0.4l-13.1,8l-14.9-3.3l-0.7-0.2l-0.7,0.3L181.9,223.9
	L181.9,223.9z M138.6,182.6l1.2,4.9l19.2-4.8l0.9-0.2l0.5-0.8l7.4-10.8l12.3,2.6l0.7,0.2l0.7-0.3l15.5-5.9l7.3,4.6l0.9,0.6l1.1-0.3
	l10-2.7l5.2,5l3.5-3.6l-6.2-6l-1-1l-1.4,0.4l-10.4,2.8l-7.4-4.6l-1.1-0.7l-1.2,0.4l-16,6.1l-13.2-2.8l-1.7-0.3l-1,1.4l-7.8,11.4
	L138.6,182.6z"/>
<path display="none" fill-rule="evenodd" clip-rule="evenodd" fill="#00953A" d="M198.4,91.2c57.6,0,104.3,46.7,104.3,104.3
	c0,6.4-0.6,12.6-1.7,18.7h-14.7c1.3-6,2-12.3,2-18.7c0-49.6-40.2-89.9-89.9-89.9s-89.9,40.2-89.9,89.9c0,6.4,0.7,12.7,2,18.7H95.8
	c-1.1-6.1-1.7-12.3-1.7-18.7C94.1,137.9,140.8,91.2,198.4,91.2L198.4,91.2z M299.9,219.2h5.4h16.7h22h13.1l-19.4,42.2l19.4,14.5
	h-46.6v22.9h-8.7h-36.7c-44.6,0-89.2,0-133.8,0h-27.8h-17v-22.9H45.4l19.4-14.5l-19.4-42.2h11.2h19.9h14.9h5.5h14.9h3.4h7.7V232
	h151.4v-12.8h7.2h3.6H299.9L299.9,219.2z M263.5,304.3l-2.7,9.1l-20.3-5.3l-9.8,16.7l-18.4-10l-13.6,13.9l-15.5-14.1l-16.5,10.2
	l-11.7-17.4l-18.5,6l-3.3-9.1C176.8,304.3,220,304.3,263.5,304.3L263.5,304.3z M306.4,214.2h22.1l3.7-2.9l-13-15.1l12.2-17.1
	l-15.4-11.8l7.7-19.5l-17.8-7.8l2.8-20.8l-19.1-3.3l-2.2-20.8l-19.3,1.4l-7.1-19.7l-18.5,6l-11.6-17.4l-16.5,10.2l-15.5-14.1
	l-13.6,13.9l-18.4-10l-9.8,16.7l-20.3-5.3l-5.5,18.6l-20.9-0.3l-0.9,19.4l-20.4,4.7l3.7,19l-18.7,9.5l8.2,17.6l-15.9,13.7l12.1,15.1
	l-12.1,17.1l3.8,2.9h20.5c-1-6.1-1.6-12.3-1.6-18.7c0-60.5,49.1-109.6,109.6-109.6S308,135,308,195.5
	C308,201.9,307.4,208.1,306.4,214.2L306.4,214.2z M310,232h0.5v36.9h23.1l-6.3-5.4l16.4-36h-41.9L310,232L310,232z M86.5,268.8V232
	v0l0,0l0,0l8.2-4.5h-1.1H79.8H58.9l16.4,36l-6.3,5.4H86.5z"/>
<path display="none" fill-rule="evenodd" clip-rule="evenodd" fill="#00953A" d="M148.2,343.6c3.4-23.3,3.3-47.8-2.9-69.7
	c-97.7-55-72.1-182.1,10.1-207.7c43.1-17.2,102-6.9,140.4,31.4c27.8,27.8,14.4,35,14.4,35l-6.1,3.4c3.4,13.3,9.4,37.7,8.6,41.1
	c-1,4.6-6.2,9.2-6.2,9.2l13.9,46.7l-12.3,5.2c2.7,15,4.3,27.4,2.8,42.2c-0.3,2.6-8.6,9.9-15.4,10.3l-41.8,2.6l2.8,50.1H148.2
	L148.2,343.6z"/>
<path display="none" fill-rule="evenodd" clip-rule="evenodd" fill="#FFFFFF" d="M257.9,111l-38.8,22.4l-38.8,22.4v-21.7
	c-30.5,6.8-55.5,24.4-66.6,52.1h-9.4c2.8-48.5,27.7-87.3,76-99.8V66.2l38.8,22.4L257.9,111L257.9,111z M211.2,201.6v-21.7
	l-38.8,22.4l-38.8,22.4l38.8,22.4l38.8,22.4v-20.2c46.7-12.1,71.5-48.7,75.7-94.9h-11.2C263.7,179.3,239.9,195.2,211.2,201.6z"/>
<rect x="78.3" y="100.6" fill-rule="evenodd" clip-rule="evenodd" fill="#00953A" stroke="#FFFFFF" stroke-width="14" stroke-miterlimit="10" width="59" height="68"/>
<rect x="136.3" y="100.6" fill-rule="evenodd" clip-rule="evenodd" fill="#00953A" stroke="#FFFFFF" stroke-width="14" stroke-miterlimit="10" width="59" height="68"/>
<rect x="195.3" y="100.6" fill-rule="evenodd" clip-rule="evenodd" fill="#00953A" stroke="#FFFFFF" stroke-width="14" stroke-miterlimit="10" width="59" height="68"/>
<rect x="254.3" y="100.6" fill-rule="evenodd" clip-rule="evenodd" fill="#00953A" stroke="#FFFFFF" stroke-width="14" stroke-miterlimit="10" width="59" height="68"/>
<rect x="78.3" y="168.6" fill-rule="evenodd" clip-rule="evenodd" fill="#00953A" stroke="#FFFFFF" stroke-width="14" stroke-miterlimit="10" width="59" height="68"/>
<rect x="136.3" y="168.6" fill-rule="evenodd" clip-rule="evenodd" fill="#00953A" stroke="#FFFFFF" stroke-width="14" stroke-miterlimit="10" width="59" height="68"/>
<rect x="195.3" y="168.6" fill-rule="evenodd" clip-rule="evenodd" fill="#00953A" stroke="#FFFFFF" stroke-width="14" stroke-miterlimit="10" width="59" height="68"/>
<rect x="254.3" y="168.6" fill-rule="evenodd" clip-rule="evenodd" fill="#00953A" stroke="#FFFFFF" stroke-width="14" stroke-miterlimit="10" width="59" height="68"/>
<rect x="78.3" y="235.8" fill-rule="evenodd" clip-rule="evenodd" fill="#00953A" stroke="#FFFFFF" stroke-width="14" stroke-miterlimit="10" width="59" height="68"/>
<rect x="136.3" y="235.8" fill-rule="evenodd" clip-rule="evenodd" fill="#00953A" stroke="#FFFFFF" stroke-width="14" stroke-miterlimit="10" width="59" height="68"/>
<rect x="195.3" y="235.8" fill-rule="evenodd" clip-rule="evenodd" fill="#00953A" stroke="#FFFFFF" stroke-width="14" stroke-miterlimit="10" width="59" height="68"/>
<rect x="254.3" y="235.8" fill-rule="evenodd" clip-rule="evenodd" fill="#00953A" stroke="#FFFFFF" stroke-width="14" stroke-miterlimit="10" width="59" height="68"/>
</svg>
